/* XPM */
static char * shrink_xpm[] = {
"26 16 3 1",
" 	c None",
".	c #FFFFFF",
"+	c #000000",
"..                      ..",
".+.                    .+.",
".++.                  .++.",
".+++.                .+++.",
".++++.              .++++.",
".+++++.     ..     .+++++.",
".++++++.   .++.   .++++++.",
".+++++++. .++++. .+++++++.",
".+++++++. .++++. .+++++++.",
".++++++.   .++.   .++++++.",
".+++++.     ..     .+++++.",
".++++.              .++++.",
".+++.                .+++.",
".++.                  .++.",
".+.                    .+.",
"..                      .."};
